<svg xmlns="http://www.w3.org/2000/svg" viewBox="0 0 24 24" fill="currentColor">
  <path d="M20.317 4.369a19.791 19.791 0 00-4.885-1.518.074.074 0 00-.079.037 13.475 13.475 0 00-.588 1.193 18.875 18.875 0 00-5.654 0 13.274 13.274 0 00-.592-1.193.072.072 0 00-.079-.037 19.769 19.769 0 00-4.885 1.518.069.069 0 00-.032.027C1.533 10.964.774 17.227 1.189 23.41a.069.069 0 00.026.049c5.334 4.146 10.4 4.038 15.654 0a.073.073 0 00.032-.049c.427-6.183-.346-12.446-4.01-19.014a.07.07 0 00-.032-.027zM8.521 15.865c-1.182 0-2.137-.867-2.137-1.934 0-1.068.946-1.935 2.137-1.935 1.182 0 2.137.867 2.137 1.935 0 1.067-.946 1.934-2.137 1.934zm6.958 0c-1.182 0-2.137-.867-2.137-1.934 0-1.068.946-1.935 2.137-1.935 1.182 0 2.137.867 2.137 1.935 0 1.067-.946 1.934-2.137 1.934z"/>
</svg>
