<svg xmlns="http://www.w3.org/2000/svg" viewBox="0 0 24 24" fill="currentColor">
  <path d="M23.643 4.937c-.835.37-1.73.617-2.675.729a4.707 4.707 0 002.054-2.592 9.224 9.224 0 01-2.948 1.13 4.671 4.671 0 00-7.987 4.258 13.263 13.263 0 01-9.635-4.88 4.612 4.612 0 00-.633 2.344c0 1.622.834 3.054 2.105 3.891a4.698 4.698 0 01-2.116-.573v.059c0 2.266 1.613 4.156 3.746 4.584a4.676 4.676 0 01-2.11.078 4.707 4.707 0 004.396 3.273 9.4 9.4 0 01-5.808 2.013c-.376 0-.748-.022-1.117-.065a13.235 13.235 0 007.169 2.095c8.607 0 13.313-7.129 13.313-13.313 0-.2-.004-.4-.014-.599a9.54 9.54 0 002.348-2.434l-.047-.02z"/>
</svg>
