<svg xmlns="http://www.w3.org/2000/svg" width="256" height="256" viewBox="0 0 100 100"><path d="M3.11 69.20L1.32 67.82Q0.76 67.52 0.53 67.26Q0.30 67.01 0.30 66.60L0.30 66.60Q0.30 66.09 0.73 65.15Q1.17 64.20 2.24 62.16L2.24 62.16Q2.54 61.50 3.41 59.82L3.41 59.82Q5.60 55.64 5.60 53.65L5.60 53.65Q5.55 53.54 5.55 53.34L5.55 53.34Q5.55 52.83 6.37 52.42L6.37 52.42Q6.52 52.27 7.47 51.56Q8.41 50.84 8.97 49.92L8.97 49.92Q9.63 48.39 10.65 46.53Q11.67 44.67 14.17 40.44L14.17 40.44Q16.62 35.95 19.37 32.33L19.37 32.33Q19.88 31.61 20.52 31.21Q21.16 30.80 21.62 30.80L21.62 30.80Q23.20 30.80 24.86 32.02Q26.51 33.25 27.02 34.47L27.02 34.47Q27.23 34.83 27.23 36.00L27.23 36.00Q27.23 37.58 26.87 41.36L26.87 41.36Q26.77 42.02 26.67 43.45L26.67 43.45Q26.51 45.74 26.21 48.34L26.21 48.34Q25.65 54.05 25.39 57.27Q25.14 60.48 25.14 63.29L25.14 63.29Q25.14 64.71 25.19 65.38L25.19 65.38L25.19 65.73L25.14 66.91Q24.83 67.21 23.91 67.21L23.91 67.21Q22.89 67.21 21.87 66.88Q20.85 66.55 20.75 66.09L20.75 66.09Q20.70 66.04 20.60 65.99Q20.50 65.94 20.50 65.53L20.50 65.53L20.55 64.41L20.70 61.55L20.96 53.75L20.29 53.80Q19.27 53.80 15.98 54.21Q12.69 54.62 11.83 54.87L11.83 54.87Q11.37 54.87 10.70 55.48Q10.04 56.09 9.53 57.06L9.53 57.06Q9.38 57.57 8.82 58.52Q8.26 59.46 8.26 59.61L8.26 59.61Q7.95 59.82 7.72 60.15Q7.49 60.48 7.44 60.58L7.44 60.58Q7.44 61.14 6.45 63.46Q5.45 65.78 4.48 67.26L4.48 67.26L3.11 69.20ZM13.51 50.28Q13.87 50.23 14.94 50.05Q16.01 49.87 16.82 49.82L16.82 49.82Q19.27 49.21 20.19 49.21L20.19 49.21Q20.70 49.21 20.90 49.31L20.90 49.31Q21.06 49.52 21.24 49.59Q21.41 49.67 21.47 49.67L21.47 49.67Q21.57 49.26 22.28 44.11Q23.00 38.96 23.00 37.79L23.00 37.79Q23.00 36.97 22.94 36.38Q22.89 35.80 22.84 35.64L22.84 35.64Q22.38 35.64 20.75 38.07Q19.12 40.49 17.59 43.55L17.59 43.55Q16.42 45.64 15.96 45.64L15.96 45.64Q15.60 46.00 14.43 48.04Q13.25 50.08 13.51 50.28L13.51 50.28ZM35.54 66.35Q34.93 66.45 34.57 66.45L34.57 66.45Q32.48 66.45 30.87 65.10Q29.27 63.74 29.27 61.65L29.27 61.65L29.22 60.84Q29.22 58.44 30.29 55.28Q31.36 52.12 32.94 50.13L32.94 50.13Q34.22 48.65 35.13 47.73Q36.05 46.81 36.82 46.51L36.82 46.51Q37.48 46.25 38.50 46.05Q39.52 45.84 40.03 45.84L40.03 45.84Q41.05 46.10 41.94 46.56Q42.83 47.02 42.83 47.58L42.83 47.58L43.09 47.83Q43.45 47.83 43.93 48.95Q44.42 50.08 44.42 50.99L44.42 50.99Q44.42 51.45 44.26 51.76L44.26 51.76Q44.06 52.73 43.47 53.65Q42.89 54.56 42.48 54.56L42.48 54.56Q41.92 54.56 41.92 54.87L41.92 54.87Q41.92 55.13 41.30 55.13L41.30 55.13Q40.79 55.13 40.23 54.90Q39.67 54.67 39.57 54.31L39.57 54.31Q39.57 54.05 39.98 52.27L39.98 52.27Q40.13 51.50 40.13 50.99L40.13 50.99Q40.13 50.08 39.52 50.08L39.52 50.08Q39.37 50.08 38.75 50.28L38.75 50.28Q37.43 50.99 36.64 51.94Q35.85 52.88 35.24 54.51Q34.62 56.15 33.81 59.26L33.81 59.26Q33.65 59.87 33.65 60.38L33.65 60.38Q33.65 60.99 33.81 61.37Q33.96 61.76 34.11 61.81L34.11 61.81Q34.37 61.91 35.03 61.91L35.03 61.91Q36.31 61.91 37.07 61.45L37.07 61.45Q37.99 60.94 38.86 60.30Q39.72 59.66 39.93 59.51L39.93 59.51Q40.03 59.41 40.34 58.93Q40.64 58.44 41.00 58.29L41.00 58.29Q41.30 57.83 41.76 57.73Q42.22 57.62 42.68 57.62Q43.14 57.62 43.29 57.62L43.29 57.62Q43.96 57.83 44.57 58.54Q45.18 59.26 44.77 59.46L44.77 59.46Q44.62 59.46 44.57 59.56Q44.52 59.66 44.52 59.72L44.52 59.72Q44.62 59.97 43.70 61.07Q42.78 62.16 41.66 63.16Q40.54 64.15 40.13 64.15L40.13 64.15Q39.93 64.15 39.77 64.20Q39.62 64.25 39.62 64.46L39.62 64.46Q39.62 64.66 38.07 65.40Q36.51 66.14 35.54 66.35L35.54 66.35ZM48.90 64.76Q48.19 64.20 47.78 63.69Q47.37 63.18 47.53 62.27L47.53 62.27Q47.68 60.53 48.29 58.24L48.29 58.24L48.55 57.22Q48.70 55.84 50.15 51.79Q51.61 47.73 52.58 46.30L52.58 46.30Q53.09 45.79 54.31 45.79L54.31 45.79Q55.33 45.79 55.74 46.20L55.74 46.20Q56.15 46.51 56.15 47.22L56.15 47.22Q56.15 48.39 54.67 51.35L54.67 51.35L54.16 52.42Q53.80 53.09 53.57 53.65Q53.34 54.21 53.60 54.16L53.60 54.16Q54.16 53.19 56.32 51.50Q58.49 49.82 59.31 49.41L59.31 49.41Q59.66 49.21 60.23 49.01Q60.79 48.80 60.99 48.70L60.99 48.70Q61.91 48.24 63.08 48.24L63.08 48.24Q63.90 48.24 64.48 48.47Q65.07 48.70 65.27 49.16L65.27 49.16Q65.33 49.52 65.55 49.72Q65.78 49.92 65.89 49.97L65.89 49.97Q66.04 49.97 66.09 50.10Q66.14 50.23 66.14 50.28L66.14 50.28Q66.14 50.69 65.43 51.33Q64.71 51.96 63.95 52.01L63.95 52.01Q63.39 52.07 62.78 52.27Q62.16 52.47 61.55 52.78L61.55 52.78L60.23 53.54Q58.49 54.41 57.29 55.25Q56.09 56.09 54.87 57.42L54.87 57.42Q54.62 57.68 54.13 58.13Q53.65 58.59 53.29 59.21L53.29 59.21Q52.93 59.56 52.55 61.07Q52.17 62.57 52.17 62.93L52.17 62.93Q52.12 63.08 51.96 63.54Q51.81 64.00 51.50 64.36L51.50 64.36Q51.05 64.92 50.74 65.17Q50.43 65.43 50.08 65.43L50.08 65.43Q49.57 65.43 48.90 64.76L48.90 64.76ZM72.21 44.82Q71.70 44.47 71.39 43.91Q71.09 43.34 71.04 42.83Q70.99 42.32 71.14 42.22L71.14 42.22Q71.45 41.87 71.75 41.25Q72.06 40.64 72.21 40.39L72.21 40.39Q72.62 39.47 72.87 39.06L72.87 39.06Q73.23 38.35 73.54 38.30L73.54 38.30Q73.94 38.09 74.20 38.09L74.20 38.09Q74.86 38.09 75.65 38.55Q76.44 39.01 76.85 39.62L76.85 39.62Q77.21 40.44 77.21 41.05L77.21 41.05Q77.21 42.27 76.04 43.75L76.04 43.75Q75.53 44.42 74.81 44.77Q74.10 45.13 73.38 45.13L73.38 45.13Q72.67 45.13 72.21 44.82L72.21 44.82ZM66.70 65.27Q65.99 64.56 65.99 62.72L65.99 62.72Q65.99 61.76 66.24 61.25L66.24 61.25Q66.24 60.99 66.35 60.63Q66.45 60.28 66.45 60.17L66.45 60.17Q66.40 59.87 66.86 58.49L66.86 58.49Q67.47 57.11 68.41 54.26Q69.35 51.40 69.71 50.18L69.71 50.18Q69.71 49.92 69.92 49.75Q70.12 49.57 70.53 49.52L70.53 49.52Q71.09 49.31 71.96 50.00Q72.82 50.69 73.38 51.56L73.38 51.56Q73.69 51.86 73.69 52.37L73.69 52.37Q73.69 53.14 73.03 54.51L73.03 54.51Q72.77 55.07 72.54 55.89Q72.31 56.71 72.16 57.42L72.16 57.42Q71.55 58.80 71.19 59.97L71.19 59.97Q71.04 60.63 70.99 60.99L70.99 60.99Q70.63 62.88 70.32 63.44L70.32 63.44Q70.02 64.71 69.46 65.35Q68.90 65.99 68.18 65.99L68.18 65.99Q67.31 65.99 66.70 65.27L66.70 65.27ZM90.52 67.11Q89.86 67.26 89.24 66.80Q88.63 66.35 88.33 65.73L88.33 65.73Q88.07 65.02 87.97 64.33Q87.87 63.64 87.82 62.47L87.82 62.47L87.77 60.74L85.67 62.62Q82.46 65.63 79.71 65.63L79.71 65.63Q78.89 65.48 77.64 64.25Q76.39 63.03 76.04 62.16L76.04 62.16Q75.83 61.76 75.83 60.89L75.83 60.89Q75.83 58.95 76.85 56.22Q77.87 53.49 79.40 51.81L79.40 51.81Q80.52 50.13 82.10 49.26Q83.69 48.39 85.32 48.39L85.32 48.39Q86.85 48.39 88.02 49.06L88.02 49.06Q88.73 49.41 89.19 49.41L89.19 49.41Q89.70 49.41 89.86 48.75L89.86 48.75Q89.91 48.50 90.47 46.71L90.47 46.71L91.03 45.08Q92.15 41.71 92.97 39.67Q93.78 37.63 94.96 35.18L94.96 35.18Q95.47 34.11 96.03 33.60Q96.59 33.09 97.05 33.14L97.05 33.14Q97.71 33.14 98.50 33.58Q99.29 34.01 99.55 34.67L99.55 34.67Q99.70 35.03 99.70 35.54L99.70 35.54Q99.70 36.10 99.39 36.71L99.39 36.71Q98.07 39.01 96.13 44.21Q94.19 49.41 93.12 53.24L93.12 53.24Q92.71 54.62 92.53 57.06Q92.36 59.51 92.36 61.86L92.36 61.86Q92.36 64.10 92.51 64.66L92.51 64.66Q92.61 64.97 92.61 65.48L92.61 65.48Q92.61 66.35 92.02 66.68Q91.44 67.01 90.52 67.11L90.52 67.11ZM82.10 60.94Q83.28 60.48 84.71 59.41L84.71 59.41Q86.24 58.29 86.92 57.42Q87.61 56.55 88.02 55.23L88.02 55.23Q88.12 54.97 88.12 54.51L88.12 54.51Q88.12 53.60 87.26 52.83L87.26 52.83Q86.75 52.42 86.08 52.42L86.08 52.42Q85.01 52.42 83.84 53.54L83.84 53.54Q82.51 54.77 81.70 56.27Q80.88 57.78 80.32 60.38L80.32 60.38Q80.22 60.74 80.42 60.97Q80.63 61.19 81.08 61.19L81.08 61.19Q81.44 61.19 82.10 60.94L82.10 60.94Z" fill="#ff0404"></path></svg>